<?xml version="1.0"?>
<svg xmlns="http://www.w3.org/2000/svg" xmlns:xlink="http://www.w3.org/1999/xlink" xmlns:svgjs="http://svgjs.com/svgjs" version="1.1" width="512" height="512" x="0" y="0" viewBox="0 0 512 512" style="enable-background:new 0 0 512 512" xml:space="preserve" class=""><g>
<g xmlns="http://www.w3.org/2000/svg">
	<g>
		<path d="M406,91v15c0,24.814-20.186,45-45,45H151c-24.814,0-45-20.186-45-45V91c-24.814,0-45,20.186-45,45v331    c0,24.814,20.186,45,45,45h300c24.814,0,45-20.127,45-44.868V136C451,111.186,430.814,91,406,91z M236.606,386.605l-60,60    c-2.93,2.93-6.768,4.395-10.605,4.395c-3.837,0-7.676-1.465-10.605-4.395l-30-30c-5.861-5.859-5.861-15.351-0.001-21.21    c5.859-5.859,15.352-5.859,21.211,0L166,414.789l49.395-49.395c5.859-5.859,15.352-5.859,21.211,0    S242.465,380.746,236.606,386.605z M236.606,296.605l-60,60c-2.93,2.93-6.768,4.395-10.605,4.395    c-3.837,0-7.676-1.465-10.605-4.395l-30-30c-5.861-5.859-5.861-15.351-0.001-21.21c5.859-5.859,15.352-5.859,21.211,0L166,324.789    l49.395-49.395c5.859-5.859,15.352-5.859,21.211,0S242.465,290.746,236.606,296.605z M236.606,206.605l-60,60    c-2.93,2.93-6.768,4.395-10.605,4.395c-3.837,0-7.676-1.465-10.605-4.395l-30-30c-5.861-5.859-5.861-15.351-0.001-21.21    c5.859-5.859,15.352-5.859,21.211,0L166,234.789l49.395-49.395c5.859-5.859,15.352-5.859,21.211,0    S242.465,200.746,236.606,206.605z M376,421h-90c-8.291,0-15-6.709-15-15c0-8.291,6.709-15,15-15h90c8.291,0,15,6.709,15,15    C391,414.291,384.291,421,376,421z M376,331h-90c-8.291,0-15-6.709-15-15c0-8.291,6.709-15,15-15h90c8.291,0,15,6.709,15,15    C391,324.291,384.291,331,376,331z M376,241h-90c-8.291,0-15-6.709-15-15s6.709-15,15-15h90c8.291,0,15,6.709,15,15    S384.291,241,376,241z" fill="#ffffff" data-original="#000000" style="" class=""/>
	</g>
</g>
<g xmlns="http://www.w3.org/2000/svg">
	<g>
		<path d="M346,61h-29.985l-9.331-37.295C303.346,10.36,291.354,0,277.597,0h-43.152c-13.775,0-25.783,10.371-29.128,23.734    L195.985,61H166c-16.569,0-30,13.431-30,30v15c0,8.284,6.716,15,15,15h210c8.284,0,15-6.716,15-15V91    C376,74.431,362.569,61,346,61z M256,61c-8.284,0-15-6.716-15-15c0-8.286,6.716-15,15-15s15,6.714,15,15    C271,54.284,264.284,61,256,61z" fill="#ffffff" data-original="#000000" style="" class=""/>
	</g>
</g>
<g xmlns="http://www.w3.org/2000/svg">
</g>
<g xmlns="http://www.w3.org/2000/svg">
</g>
<g xmlns="http://www.w3.org/2000/svg">
</g>
<g xmlns="http://www.w3.org/2000/svg">
</g>
<g xmlns="http://www.w3.org/2000/svg">
</g>
<g xmlns="http://www.w3.org/2000/svg">
</g>
<g xmlns="http://www.w3.org/2000/svg">
</g>
<g xmlns="http://www.w3.org/2000/svg">
</g>
<g xmlns="http://www.w3.org/2000/svg">
</g>
<g xmlns="http://www.w3.org/2000/svg">
</g>
<g xmlns="http://www.w3.org/2000/svg">
</g>
<g xmlns="http://www.w3.org/2000/svg">
</g>
<g xmlns="http://www.w3.org/2000/svg">
</g>
<g xmlns="http://www.w3.org/2000/svg">
</g>
<g xmlns="http://www.w3.org/2000/svg">
</g>
</g></svg>
