<?xml version="1.0" encoding="utf-8"?>
<!-- Generator: Adobe Illustrator 24.0.1, SVG Export Plug-In . SVG Version: 6.00 Build 0)  -->
<svg version="1.1" xmlns="http://www.w3.org/2000/svg" xmlns:xlink="http://www.w3.org/1999/xlink" x="0px" y="0px"
	 viewBox="0 0 1697.2 512" style="enable-background:new 0 0 1697.2 512;" xml:space="preserve">
<style type="text/css">
	.st0{fill:#0047FF;}
	.st1{fill:#FFFFFF;}
	.st2{font-family:'Roboto';}
	.st3{font-size:546.4304px;}
</style>
<g id="Camada_2">
	<path class="st0" d="M445,512H67c-37,0-67-30-67-67V67C0,30,30,0,67,0h378c37,0,67,30,67,67v378C512,482,482,512,445,512z"/>
</g>
<g id="Camada_1" xmlns:svgjs="http://svgjs.com/svgjs">
	<g>
		<g>
			<path class="st1" d="M501.1,143.1L289.9,354.3c-5.3,5.3-13.9,5.3-19.2,0l-4.2-4.2l0,0l-4.6-4.6l-19.9-19.9l-0.3-0.4l-91.3-92
				c-5.3-5.3-5.3-13.9,0-19.2l28.8-28.7c5.3-5.3,13.9-5.3,19.2,0l82.1,82.7L453.1,95.2c5.3-5.3,13.9-5.3,19.2,0l28.8,28.8
				C506.3,129.2,506.3,137.9,501.1,143.1z"/>
			<path class="st1" d="M409.7,392.6c0,15.3-12.5,27.8-27.8,27.8H122.6c-15.3,0-27.8-12.5-27.8-27.8V119.4
				c0-15.3,12.5-27.8,27.8-27.8h259.3c15.3,0,27.8,12.5,27.8,27.8l0,0l19.8-18.3c3.2-22.5-19.5-37.3-47.6-37.3H122.6
				C91.9,63.9,67,88.7,67,119.4v273.2c0,30.7,24.9,55.6,55.6,55.6h259.3c30.7,0,55.6-24.9,55.6-55.6V229.7L409.7,260L409.7,392.6
				L409.7,392.6z"/>
		</g>
	</g>
	<text transform="matrix(1 0 0 1 557.8345 448.1448)" class="st0 st2 st3">Do It</text>
</g>
</svg>
